<svg width="188" height="188" viewBox="0 0 188 188" fill="none" xmlns="http://www.w3.org/2000/svg">
<circle opacity="0.1" cx="93.7393" cy="93.739" r="88" fill="#1F1D2B" stroke="white" stroke-width="11.4783"/>
<circle opacity="0.05" cx="93.7395" cy="93.7393" r="76.5217" fill="#1F1D2B" stroke="white" stroke-width="11.4783"/>
<circle opacity="0.1" cx="93.7388" cy="93.7388" r="65.0435" fill="#1F1D2B" stroke="white" stroke-width="11.4783"/>
<circle opacity="0.05" cx="93.739" cy="93.739" r="53.5652" fill="#1F1D2B" stroke="white" stroke-width="11.4783"/>
<path d="M5.73926 93.739C5.73926 142.34 45.1382 181.739 93.7393 181.739C142.34 181.739 181.739 142.34 181.739 93.739C181.739 45.138 142.34 5.73901 93.7393 5.73901" stroke="#65B0F6" stroke-width="11.4783" stroke-linecap="round"/>
<path d="M93.7393 170.261C136.001 170.261 170.261 136.001 170.261 93.7393C170.261 51.4775 136.001 17.2175 93.7393 17.2175" stroke="#FFB572" stroke-width="11.4783" stroke-linecap="round"/>
<path d="M94.1782 28.1436C105.521 28.1436 116.666 31.1096 126.508 36.7472C136.35 42.3849 144.547 50.4983 150.285 60.2822C156.023 70.0661 159.102 81.1804 159.218 92.5222C159.334 103.864 156.482 115.039 150.946 124.938C145.409 134.837 137.38 143.116 127.655 148.954C117.93 154.792 106.848 157.985 95.5078 158.217C84.1678 158.449 72.9643 155.711 63.0091 150.276C53.0539 144.841 44.693 136.897 38.7562 127.232" stroke="#FF7CA3" stroke-width="11.4783" stroke-linecap="round"/>
</svg>
