<svg width="14" height="14" viewBox="0 0 14 14" fill="none" xmlns="http://www.w3.org/2000/svg">
<path d="M7.00006 1.75C7.24527 1.75 7.44792 1.92955 7.48 2.16251L7.48442 2.22727L7.48417 10.6172L10.5474 7.5861C10.7362 7.39931 11.0428 7.39866 11.2324 7.58465C11.4047 7.75372 11.4209 8.01884 11.2807 8.20598L11.2339 8.25961L7.34355 12.1096L7.33335 12.119C7.32289 12.1288 7.31199 12.1381 7.30068 12.147L7.34355 12.1096C7.32481 12.1282 7.3049 12.1449 7.28406 12.1597C7.27097 12.1687 7.25738 12.1775 7.24334 12.1855C7.2121 12.2037 7.17941 12.2178 7.14579 12.2282C7.13394 12.2317 7.12184 12.235 7.10956 12.2378C7.10018 12.24 7.09066 12.2419 7.08109 12.2435C7.07072 12.2451 7.06035 12.2465 7.04988 12.2475C7.03937 12.2487 7.02862 12.2494 7.01787 12.2498C7.01191 12.2499 7.006 12.25 7.00006 12.25L6.98398 12.2499C6.97205 12.2495 6.96014 12.2486 6.94826 12.2474L7.00006 12.25C6.97241 12.25 6.94529 12.2477 6.9189 12.2433C6.90687 12.2414 6.8948 12.2389 6.88281 12.2359C6.87329 12.2336 6.86394 12.231 6.85471 12.2281C6.84374 12.2248 6.83269 12.2209 6.82177 12.2166C6.81049 12.2122 6.79947 12.2074 6.78867 12.2023C6.7804 12.1983 6.77188 12.194 6.76347 12.1893C6.74769 12.1805 6.73288 12.1712 6.71865 12.1612C6.71642 12.1596 6.71396 12.1579 6.71152 12.1561C6.6899 12.1402 6.67083 12.1237 6.65317 12.1058L2.76616 8.25964C2.5774 8.07287 2.57803 7.77067 2.76757 7.58467C2.93989 7.41558 3.209 7.40073 3.39832 7.53975L3.45255 7.58607L6.51525 10.6167L6.51571 2.22727C6.51571 1.96368 6.73256 1.75 7.00006 1.75Z" fill="#FF7CA3"/>
</svg>
